<?xml version="1.0" standalone="no"?>
<!DOCTYPE svg PUBLIC "-//W3C//DTD SVG 20010904//EN"
 "http://www.w3.org/TR/2001/REC-SVG-20010904/DTD/svg10.dtd">
<svg version="1.0" xmlns="http://www.w3.org/2000/svg"
 width="200.000000pt" height="200.000000pt" viewBox="0 0 200.000000 200.000000"
 preserveAspectRatio="xMidYMid meet">

<g transform="translate(0.000000,200.000000) scale(0.100000,-0.100000)"
fill="#000000" stroke="none">
<path d="M935 1584 c-19 -26 -35 -52 -35 -59 0 -13 -30 -25 -62 -25 -45 0
-132 -45 -188 -97 -77 -71 -77 -86 -3 -152 31 -28 62 -51 68 -51 38 0 82 63
96 139 7 43 8 42 6 -20 -2 -53 -8 -75 -30 -108 l-27 -41 40 -6 c33 -5 46 -15
74 -53 18 -25 36 -55 40 -65 6 -17 8 -18 22 -5 8 9 17 32 21 53 5 32 3 38 -16
43 -41 11 -20 20 56 26 l77 6 43 -40 c59 -54 69 -52 65 17 -3 45 -8 57 -23 61
-22 6 -24 14 -7 31 19 19 46 14 111 -22 67 -36 135 -61 144 -52 3 3 -8 22 -24
43 -61 77 -63 146 -7 235 l25 39 -35 -15 c-19 -8 -62 -33 -95 -55 -63 -43 -82
-48 -128 -30 l-28 11 27 23 27 23 -21 29 c-37 49 -152 163 -165 163 -7 0 -28
-21 -48 -46z m-205 -234 c0 -25 -30 -41 -53 -29 -39 22 -4 79 35 58 10 -5 18
-18 18 -29z"/>
<path d="M981 932 c-13 -25 8 -56 35 -50 29 5 27 62 -3 66 -13 2 -26 -4 -32
-16z"/>
<path d="M750 730 l0 -200 30 0 30 0 0 124 c0 96 3 126 15 136 29 24 35 0 35
-131 l0 -129 30 0 30 0 0 135 c0 122 -2 137 -20 155 -22 22 -42 25 -71 10 -18
-10 -19 -7 -19 45 0 54 0 55 -30 55 l-30 0 0 -200z"/>
<path d="M1280 730 l0 -200 25 0 25 0 0 125 c0 111 2 125 18 134 35 19 42 -6
42 -137 l0 -123 27 3 27 3 -1 133 c0 114 -3 135 -19 153 -18 20 -37 21 -76 4
-16 -6 -18 -1 -18 49 0 53 -1 56 -25 56 l-25 0 0 -200z"/>
<path d="M602 824 c-12 -8 -22 -10 -22 -5 0 6 -11 11 -25 11 l-25 0 0 -200 0
-200 30 0 c30 0 30 1 30 53 l0 52 42 0 c58 0 68 22 68 151 0 87 -3 105 -21
128 -23 30 -45 33 -77 10z m39 -51 c14 -36 8 -178 -8 -194 -6 -6 -19 -9 -27
-6 -13 5 -16 25 -16 105 0 92 8 122 32 122 5 0 13 -12 19 -27z"/>
<path d="M1106 817 c-40 -40 -31 -81 35 -160 42 -49 48 -82 14 -82 -12 0 -21
9 -25 25 -4 16 -13 25 -25 25 -26 0 -32 -38 -11 -71 13 -19 25 -24 60 -24 74
0 100 63 54 129 -13 17 -36 49 -52 72 -27 36 -28 41 -14 56 20 20 38 9 38 -23
0 -19 5 -24 25 -24 21 0 25 5 25 28 0 40 -19 62 -62 68 -30 5 -41 2 -62 -19z"/>
<path d="M980 680 l0 -150 30 0 30 0 0 150 0 150 -30 0 -30 0 0 -150z"/>
<path d="M881 398 c2 -30 2 -31 6 -5 5 34 23 36 23 2 0 -14 5 -25 10 -25 6 0
10 11 10 25 0 14 5 25 10 25 6 0 10 -11 10 -25 0 -14 5 -25 11 -25 6 0 9 12 7
28 -3 24 -7 27 -45 30 -43 3 -43 3 -42 -30z"/>
<path d="M1066 415 c-9 -26 5 -45 33 -44 22 0 23 2 7 8 -18 7 -18 8 -3 14 9 3
17 13 17 22 0 20 -46 20 -54 0z"/>
</g>
</svg>
